<?xml version="1.0" encoding="iso-8859-1"?>
<!-- Generator: Adobe Illustrator 19.0.0, SVG Export Plug-In . SVG Version: 6.00 Build 0)  -->
<svg version="1.1" id="Layer_1" xmlns="http://www.w3.org/2000/svg" xmlns:xlink="http://www.w3.org/1999/xlink" x="0px" y="0px"
	 viewBox="0 0 512 512" style="enable-background:new 0 0 512 512;" xml:space="preserve">
<g>
	<g>
		<g>
			<path d="M256,149.333c-11.782,0-21.333,9.551-21.333,21.333v64c0,11.782,9.551,21.333,21.333,21.333s21.333-9.551,21.333-21.333
				v-64C277.333,158.885,267.782,149.333,256,149.333z"/>
			<path d="M256,85.333c-11.776,0-21.333,9.557-21.333,21.333S244.224,128,256,128s21.333-9.557,21.333-21.333
				S267.776,85.333,256,85.333z"/>
			<path d="M426.667,170.667C426.667,76.41,350.257,0,256,0S85.333,76.41,85.333,170.667c0,87.031,65.146,158.843,149.333,169.342
				v150.658c0,11.782,9.551,21.333,21.333,21.333s21.333-9.551,21.333-21.333V340.008
				C361.521,329.51,426.667,257.698,426.667,170.667z M256,298.667c-70.693,0-128-57.307-128-128s57.307-128,128-128
				s128,57.307,128,128S326.693,298.667,256,298.667z"/>
		</g>
	</g>
</g>
<g>
</g>
<g>
</g>
<g>
</g>
<g>
</g>
<g>
</g>
<g>
</g>
<g>
</g>
<g>
</g>
<g>
</g>
<g>
</g>
<g>
</g>
<g>
</g>
<g>
</g>
<g>
</g>
<g>
</g>
</svg>
