<?xml version="1.0" encoding="UTF-8" standalone="no"?>
<!-- Created with Inkscape (http://www.inkscape.org/) -->

<svg
   xmlns:dc="http://purl.org/dc/elements/1.1/"
   xmlns:cc="http://creativecommons.org/ns#"
   xmlns:rdf="http://www.w3.org/1999/02/22-rdf-syntax-ns#"
   xmlns:svg="http://www.w3.org/2000/svg"
   xmlns="http://www.w3.org/2000/svg"
   xmlns:xlink="http://www.w3.org/1999/xlink"
   xmlns:sodipodi="http://sodipodi.sourceforge.net/DTD/sodipodi-0.dtd"
   xmlns:inkscape="http://www.inkscape.org/namespaces/inkscape"
   width="210mm"
   height="297mm"
   id="svg2"
   version="1.1"
   inkscape:version="0.48.5 r10040"
   inkscape:export-filename="D:\Projekte\tiroltrailhead\monsterrides\crossW.png"
   inkscape:export-xdpi="55"
   inkscape:export-ydpi="55"
   sodipodi:docname="Neues Dokument 1">
  <defs
     id="defs4" />
  <sodipodi:namedview
     id="base"
     pagecolor="#ffffff"
     bordercolor="#666666"
     borderopacity="1.0"
     inkscape:pageopacity="0.0"
     inkscape:pageshadow="2"
     inkscape:zoom="0.7"
     inkscape:cx="379.52701"
     inkscape:cy="520"
     inkscape:document-units="px"
     inkscape:current-layer="layer1"
     showgrid="false"
     inkscape:window-width="1462"
     inkscape:window-height="841"
     inkscape:window-x="66"
     inkscape:window-y="-8"
     inkscape:window-maximized="1" />
  <metadata
     id="metadata7">
    <rdf:RDF>
      <cc:Work
         rdf:about="">
        <dc:format>image/svg+xml</dc:format>
        <dc:type
           rdf:resource="http://purl.org/dc/dcmitype/StillImage" />
        <dc:title></dc:title>
      </cc:Work>
    </rdf:RDF>
  </metadata>
  <g
     inkscape:label="Ebene 1"
     inkscape:groupmode="layer"
     id="layer1">
    <path
       style="fill:#ffffff;stroke:#ffffff;stroke-width:17.70000076000000200;stroke-linecap:butt;stroke-linejoin:miter;stroke-miterlimit:4;stroke-opacity:1;stroke-dasharray:none"
       d="m 347.99755,503.84935 c -4.54569,-19.36126 -9.09137,-38.72251 -13.63706,-58.08377 1.76883,-5.22164 6.10378,-6.78239 11.19882,-7.25879 5.22561,-0.8005 10.65659,-3.08373 15.75634,-2.97563 5.46637,1.38202 7.15866,5.62569 7.59291,10.82325 3.46791,15.46108 6.93581,30.92217 10.40372,46.38326 10.77496,-2.52538 21.54992,-5.05076 32.32488,-7.57614 4.81023,2.08581 7.47339,5.63874 7.57575,10.9415 0.51473,6.06738 4.92163,12.45545 1.28155,18.18049 -6.01417,3.15501 -13.88191,4.27065 -20.61089,6.6392 -4.67702,1.43428 -11.29203,1.56251 -8.40775,8.09248 0.399,13.31772 6.84741,25.34158 10.40178,37.98441 2.31178,8.93966 3.38826,18.19464 5.21388,27.25839 5.7242,-0.33672 11.44839,-0.67343 17.17259,-1.01015 2.10904,5.0317 8.92389,0.72902 13.2358,1.39113 6.53139,-0.63207 13.06277,-1.26414 19.59416,-1.89621 2.0203,-10.77496 4.04061,-21.54992 6.06091,-32.32488 -4.22264,-1.26441 -11.48058,1.43515 -11.9848,-4.68534 0.23739,-4.62602 1.32168,-9.34202 1.88328,-14.00248 3.88601,-0.98465 11.60939,3.36587 11.97432,-2.51419 2.63135,-8.65435 4.51792,-17.5056 6.7135,-26.27516 4.52122,-4.05874 8.3081,-2.16199 12.35702,1.27143 5.17074,1.20847 9.75633,2.83094 7.84603,9.04935 -1.25563,7.13673 -5.00028,14.17597 -5.76937,21.21775 2.15155,4.00107 9.11352,1.467 13.24,2.78504 6.53736,-1.25366 7.75724,2.55509 6.44747,8.26195 1.05389,4.72535 -2.1337,9.78121 -7.1818,9.43734 -3.70767,1.17473 -12.35737,-2.59257 -12.29214,2.35507 -1.87503,5.47179 -2.82464,11.26889 -3.11388,17.16699 -0.42766,4.85425 -2.85191,11.51538 4.56842,9.26729 10.83899,-0.21226 21.22931,4.07078 31.39671,7.45336 5.60741,-0.20392 6.92473,5.72162 10.63876,7.25921 4.84945,0.71549 11.05224,-1.44509 13.70406,3.94072 2.67504,3.54345 -6.84957,5.32833 -9.30234,8.13261 -5.55247,2.96161 -11.69287,6.00172 -18.09223,6.04405 -0.58294,5.69748 -6.57009,5.55899 -9.3209,8.96374 -1.92374,5.04957 -4.24152,9.13259 -9.79247,5.28467 -7.37776,-1.33457 -9.68623,-8.92476 -14.72674,1.40896 -6.61423,5.89707 -12.83807,5.60769 -15.96871,-2.6945 -1.89594,-5.65768 -6.28214,-6.0858 -10.38258,-2.12968 -3.86569,5.00241 -7.78323,-2.27945 -12.69206,0.109 -7.59267,7.02485 -18.30245,5.42126 -28.38061,8.46958 -9.48298,2.74391 -20.07328,4.67868 -26.52023,12.91312 -4.33504,-0.3891 -9.84251,-5.893 -13.28203,-2.37533 -4.78469,4.88774 -11.54863,6.87203 -18.0327,8.43624 -3.90209,-6.16159 -6.75185,-0.21795 -11.44644,0 -6.27469,1.01018 -12.9255,-2.82386 -18.59893,0.94203 -4.82106,4.98024 -12.72753,5.4842 -18.94702,3.09858 -4.35082,-4.83863 -1.31739,-13.09624 -9.59645,-14.14213 1.31247,-12.86966 -10.4588,-12.13625 -20.30184,-12.88768 -5.42449,0.56169 -3.65436,-7.40524 -7.33811,-10.13696 -0.23269,-4.33081 -10.85761,-5.13807 -6.55519,-8.94522 2.95102,-3.56879 8.8751,-6.17079 6.18642,-11.57351 -3.35207,-12.00493 14.74964,2.46393 19.9275,-5.95411 -2.03475,-3.31493 -7.43483,-9.60768 -0.45027,-10.10152 5.68206,0.51155 10.83991,0.66308 6.27704,-5.86157 -2.48814,-4.37615 -9.12964,-7.98537 -5.97428,-13.82522 1.51165,-4.45569 2.76836,-8.93635 1.66274,-13.64825 11.8273,-3.13504 12.75179,19.4572 22.26111,15.54837 9.31538,0.79873 18.36001,10.85975 28.13557,13.94312 6.72568,4.35569 15.14808,1.52401 22.71213,2.32832 7.63005,2.23775 3.92634,-4.70051 3.21758,-9.21401 -3.30882,-16.00747 -7.07508,-31.91431 -10.66648,-47.85961 -8.77301,1.56835 -17.49495,4.72671 -26.29957,5.31097 -4.95521,-0.36291 -9.66203,-1.1935 -12.33069,-5.86152 -5.14212,-3.89669 -2.53319,-11.17607 -4.26195,-16.69694 -1.73582,-4.61698 -1.15488,-9.7904 4.79689,-9.97613 9.49962,-1.86878 18.99925,-3.73756 28.49887,-5.60634 z"
       id="path2996"
       inkscape:connector-curvature="0" />
    <image
       y="410.93362"
       x="255.71426"
       id="image2993"
       xlink:href="file:///D:/Projekte/tiroltrailhead/monsterrides/cross.png"
       height="300"
       width="300"
       style="fill:#ff2a2a" />
  </g>
</svg>
