<?xml version="1.0" encoding="UTF-8" standalone="no"?>
<svg
   xmlns:dc="http://purl.org/dc/elements/1.1/"
   xmlns:cc="http://creativecommons.org/ns#"
   xmlns:rdf="http://www.w3.org/1999/02/22-rdf-syntax-ns#"
   xmlns:svg="http://www.w3.org/2000/svg"
   xmlns="http://www.w3.org/2000/svg"
   xmlns:sodipodi="http://sodipodi.sourceforge.net/DTD/sodipodi-0.dtd"
   xmlns:inkscape="http://www.inkscape.org/namespaces/inkscape"
   enable-background="new 0 0 580 580"
   height="704"
   viewBox="0 0 704 704"
   width="704"
   id="svg2"
   version="1.1"
   inkscape:version="0.48.5 r10040"
   sodipodi:docname="shopping_photo.svg">
  <metadata
     id="metadata18">
    <rdf:RDF>
      <cc:Work
         rdf:about="">
        <dc:format>image/svg+xml</dc:format>
        <dc:type
           rdf:resource="http://purl.org/dc/dcmitype/StillImage" />
      </cc:Work>
    </rdf:RDF>
  </metadata>
  <defs
     id="defs16" />
  <sodipodi:namedview
     pagecolor="#ffffff"
     bordercolor="#666666"
     borderopacity="1"
     objecttolerance="10"
     gridtolerance="10"
     guidetolerance="10"
     inkscape:pageopacity="0"
     inkscape:pageshadow="2"
     inkscape:window-width="1462"
     inkscape:window-height="841"
     id="namedview14"
     showgrid="false"
     inkscape:zoom="0.40689655"
     inkscape:cx="313.55286"
     inkscape:cy="353.13597"
     inkscape:window-x="66"
     inkscape:window-y="-8"
     inkscape:window-maximized="1"
     inkscape:current-layer="layer1"
     fit-margin-top="2"
     fit-margin-left="2"
     fit-margin-right="2"
     fit-margin-bottom="2" />
  <g
     inkscape:groupmode="layer"
     id="layer1"
     inkscape:label="Ebene"
     transform="translate(59.188453,60.863999)">
    <path
       sodipodi:type="arc"
       style="fill:#ffee00;fill-opacity:1;fill-rule:nonzero;stroke:none"
       id="path3768"
       sodipodi:cx="420.25424"
       sodipodi:cy="284.16949"
       sodipodi:rx="493.98306"
       sodipodi:ry="471.86441"
       d="M 468.54152,-185.43512 C 740.05428,-159.9609 938.5399,70.939188 911.87158,330.29465 885.20325,589.65012 643.47972,779.24833 371.96697,753.77411 100.45421,728.29988 -98.031421,497.3998 -71.363094,238.04434 -44.699907,-21.261155 196.93985,-210.84632 468.40755,-185.44767"
       transform="matrix(0.70847483,0,0,0.74168474,-4.9280048,80.37176)"
       sodipodi:start="4.8102962"
       sodipodi:end="11.093209"
       sodipodi:open="true" />
  </g>
  <path
     d="m 259.00518,200.241 h 172.625 c 0.927,0 1.78,-0.503 2.23,-1.313 0.449,-0.811 0.423,-1.801 -0.067,-2.587 l -23.313,-37.328 c -0.466,-0.746 -1.283,-1.199 -2.163,-1.199 h -123.738 c -0.841,0 -1.628,0.415 -2.104,1.108 l -25.574,37.328 c -0.535,0.781 -0.594,1.793 -0.152,2.63 0.442,0.837 1.31,1.361 2.256,1.361 z m 110.631,-32.869 v 24.146 h -46.77 v -24.146 z"
     fill="param(fill)"
     fill-opacity="param(fill-opacity)"
     stroke-opacity="param(outline-opacity)"
     stroke-width="param(outline-width)"
     id="path4"
     style="stroke:none"
     inkscape:connector-curvature="0" />
  <path
     d="m 482.97318,199.995 h 68.214 c 0.842,0 1.629,-0.415 2.104,-1.109 0.475,-0.694 0.577,-1.579 0.272,-2.363 l -8.263,-21.295 c -0.38,-0.981 -1.324,-1.627 -2.377,-1.627 h -50.9 c -1.022,0 -1.947,0.611 -2.347,1.553 l -9.05,21.295 c -0.335,0.788 -0.252,1.691 0.22,2.404 0.473,0.713 1.272,1.142 2.127,1.142 z"
     fill="param(fill)"
     fill-opacity="param(fill-opacity)"
     stroke-opacity="param(outline-opacity)"
     stroke-width="param(outline-width)"
     id="path6"
     style="stroke:none"
     inkscape:connector-curvature="0" />
  <path
     d="m 155.38118,199.847 h 45.886 c 0.777,0 1.512,-0.354 1.996,-0.963 0.483,-0.608 0.664,-1.404 0.488,-2.162 l -3.197,-13.82 c -0.268,-1.156 -1.297,-1.975 -2.484,-1.975 h -38.263 c -1.109,0 -2.09,0.716 -2.429,1.772 l -4.426,13.82 c -0.248,0.776 -0.111,1.623 0.369,2.281 0.481,0.659 1.246,1.047 2.06,1.047 z"
     fill="param(fill)"
     fill-opacity="param(fill-opacity)"
     stroke-opacity="param(outline-opacity)"
     stroke-width="param(outline-width)"
     id="path8"
     style="stroke:none"
     inkscape:connector-curvature="0" />
  <path
     d="M 559.08618,209.708 H 132.52319 c -24.651,0 -44.499997,19.849 -44.499997,44.5 v 237.813 c 0,24.651 19.848997,44.5 44.499997,44.5 h 426.56299 c 24.651,0 44.5,-19.849 44.5,-44.5 V 254.208 c 0,-24.652 -19.849,-44.5 -44.5,-44.5 z m -166.313,279.25 c -65.251,0 -118.156,-52.904 -118.156,-118.156 0,-65.251 52.905,-118.125 118.156,-118.125 65.251,0 118.156,52.874 118.156,118.125 0,65.252 -52.905,118.156 -118.156,118.156 z"
     fill="param(fill)"
     fill-opacity="param(fill-opacity)"
     stroke-opacity="param(outline-opacity)"
     stroke-width="param(outline-width)"
     id="path10"
     style="stroke:none"
     inkscape:connector-curvature="0" />
  <path
     d="m 392.74818,300.207 c -38.981,0.012 -70.572,31.623 -70.559,70.604 0,0.015 0,0.029 0,0.045 0.012,38.98 31.623,70.572 70.604,70.559 38.981,-0.012 70.572,-31.623 70.56,-70.604 0,-0.016 0,-0.03 0,-0.045 -0.013,-38.981 -31.624,-70.572 -70.605,-70.559 z"
     fill="param(fill)"
     fill-opacity="param(fill-opacity)"
     stroke-opacity="param(outline-opacity)"
     stroke-width="param(outline-width)"
     id="path12"
     style="stroke:none"
     inkscape:connector-curvature="0" />
</svg>
